<?xml version="1.0" standalone="no"?>
<!DOCTYPE svg PUBLIC "-//W3C//DTD SVG 20010904//EN"
 "http://www.w3.org/TR/2001/REC-SVG-20010904/DTD/svg10.dtd">
<svg version="1.0" xmlns="http://www.w3.org/2000/svg"
 width="324.000000pt" height="324.000000pt" viewBox="0 0 324.000000 324.000000"
 preserveAspectRatio="xMidYMid meet">

<g transform="translate(0.000000,324.000000) scale(0.100000,-0.100000)"
fill="#000000" stroke="none">
<path d="M2215 2829 c-197 -29 -306 -115 -482 -379 -38 -58 -87 -134 -108
-170 -52 -88 -134 -198 -194 -262 l-50 -53 57 -6 c124 -14 138 -12 184 29 50
45 172 206 230 305 24 40 47 80 53 89 83 141 270 353 340 388 17 8 41 22 55
31 14 9 39 21 55 27 28 10 26 10 -25 10 -30 0 -82 -4 -115 -9z"/>
<path d="M1685 2674 c-44 -8 -81 -19 -83 -24 -2 -5 -10 -6 -19 -3 -10 4 -14 2
-10 -4 5 -7 -1 -9 -15 -5 -16 4 -19 2 -13 -8 5 -9 4 -11 -3 -6 -32 20 -175
-94 -302 -240 -41 -48 -144 -186 -170 -229 -13 -22 -27 -42 -30 -45 -4 -3 -12
-15 -18 -26 -9 -17 -9 -24 1 -31 18 -14 79 -41 107 -47 28 -6 29 -5 173 204
153 220 256 330 372 396 99 57 115 63 165 73 l45 9 -60 0 c-33 0 -96 -6 -140
-14z m-255 -128 c0 -2 -8 -10 -17 -17 -16 -13 -17 -12 -4 4 13 16 21 21 21 13z"/>
<path d="M797 1826 c-83 -78 -181 -136 -269 -161 l-53 -15 50 6 c28 4 78 8
112 9 66 4 153 29 238 71 49 24 185 139 155 131 -8 -2 -29 2 -47 10 -18 7 -39
10 -47 7 -9 -3 -16 -1 -16 5 0 31 -51 4 -123 -63z"/>
<path d="M1185 1837 c-7 -4 -40 -14 -72 -21 l-58 -15 117 5 c64 3 138 11 165
19 l48 12 -93 4 c-52 2 -100 1 -107 -4z"/>
<path d="M1000 1249 c-64 -12 -110 -63 -110 -121 0 -52 28 -101 70 -123 18 -9
60 -17 98 -18 56 -2 67 1 70 16 3 15 -5 17 -63 17 -74 0 -116 18 -134 57 -15
33 -14 59 4 93 21 42 63 60 135 60 45 0 61 3 58 13 -6 15 -68 18 -128 6z"/>
<path d="M1162 1159 l3 -101 38 -33 c65 -56 139 -56 204 0 l38 33 3 101 c3 87
2 101 -12 101 -13 0 -16 -14 -16 -89 0 -84 -1 -90 -29 -120 -25 -27 -36 -31
-81 -31 -52 0 -114 30 -116 58 -1 6 -2 48 -2 91 -2 62 -5 80 -18 85 -14 5 -15
-6 -12 -95z"/>
<path d="M1216 1253 c-3 -3 -6 -45 -6 -93 0 -108 13 -125 96 -125 86 0 99 22
96 163 -2 48 -5 62 -17 62 -12 0 -15 -16 -15 -80 0 -89 -17 -120 -65 -120 -47
0 -65 31 -65 114 0 69 -8 95 -24 79z"/>
<path d="M1523 1245 c-17 -7 -36 -22 -42 -34 -6 -11 -11 -67 -11 -125 0 -88 3
-106 15 -106 12 0 15 19 15 115 0 103 2 115 19 125 28 14 67 12 81 -5 11 -13
14 -13 27 0 22 23 69 19 87 -7 12 -17 16 -48 16 -125 0 -62 4 -103 10 -103 13
0 13 215 0 240 -14 26 -65 42 -97 29 -18 -7 -36 -6 -56 1 -17 5 -30 10 -31 10
-1 -1 -15 -7 -33 -15z"/>
<path d="M2103 1245 c-17 -7 -36 -22 -42 -34 -6 -11 -11 -67 -11 -125 0 -88 3
-106 15 -106 12 0 15 19 15 115 0 114 0 116 26 127 19 9 33 9 56 0 22 -8 36
-8 50 -1 11 6 33 9 50 7 37 -6 47 9 14 22 -17 6 -35 6 -53 -1 -18 -7 -36 -6
-56 1 -17 5 -30 10 -31 10 -1 -1 -15 -7 -33 -15z"/>
<path d="M1855 1230 c-103 -51 -102 -193 1 -236 47 -20 164 -19 164 1 0 12
-15 15 -71 15 -67 0 -73 2 -105 34 -38 38 -43 70 -18 117 19 39 68 59 139 59
42 0 55 3 55 15 0 24 -114 20 -165 -5z"/>
<path d="M2297 1224 c-3 -4 -2 -14 3 -23 4 -9 8 -63 7 -119 -2 -76 1 -102 11
-102 9 0 12 29 12 109 0 127 -8 160 -33 135z"/>
<path d="M1526 1204 c-23 -22 -24 -224 -1 -224 12 0 15 18 15 105 0 98 1 105
20 105 19 0 20 -7 20 -105 0 -87 3 -105 15 -105 12 0 15 18 15 103 0 88 -3
106 -18 120 -23 21 -46 22 -66 1z"/>
<path d="M1632 1208 c-8 -8 -12 -49 -12 -120 0 -88 3 -108 15 -108 11 0 15 20
17 103 2 83 6 102 18 102 12 0 16 -19 18 -102 1 -57 7 -103 12 -103 15 0 17
200 2 221 -15 21 -52 25 -70 7z"/>
<path d="M2112 1213 c-6 -2 -10 -9 -6 -14 3 -5 0 -9 -5 -9 -7 0 -11 -38 -11
-105 0 -87 3 -105 15 -105 12 0 15 18 15 106 0 95 2 105 18 102 15 -3 17 -17
20 -106 2 -82 6 -102 17 -102 12 0 15 19 15 98 0 124 -20 159 -78 135z"/>
<path d="M2218 1209 c-15 -9 -18 -26 -18 -119 0 -90 3 -110 15 -110 11 0 15
20 17 103 2 83 6 102 18 102 12 0 16 -19 18 -102 1 -58 7 -103 12 -103 15 0
13 213 -2 228 -15 15 -37 15 -60 1z"/>
<path d="M2786 1198 c-9 -12 -16 -27 -16 -33 0 -5 -14 -18 -30 -27 -24 -14
-30 -24 -30 -52 0 -62 -74 -181 -105 -169 -16 6 -49 -42 -40 -57 4 -6 -2 -20
-14 -31 -12 -11 -21 -24 -21 -28 0 -8 -20 -17 -57 -26 -20 -5 -83 -57 -94 -77
-5 -10 -14 -16 -18 -13 -5 2 -21 -5 -35 -16 -26 -20 -26 -22 -11 -45 8 -13 11
-24 5 -24 -5 0 -10 5 -10 11 0 7 -10 9 -27 5 -16 -3 -38 -8 -50 -10 -13 -2
-29 -9 -37 -15 -8 -7 -16 -8 -18 -4 -3 4 -3 2 -2 -5 5 -19 -109 -72 -156 -72
-35 0 -40 -3 -41 -22 0 -17 -2 -19 -7 -8 -10 21 -60 26 -68 6 -4 -10 -16 -14
-36 -11 -17 2 -27 1 -24 -2 3 -4 -1 -14 -10 -24 -9 -10 -14 -24 -11 -32 4 -10
-1 -13 -19 -9 -13 2 -24 10 -24 18 0 7 -8 18 -18 23 -26 14 -193 6 -202 -9 -4
-7 -12 -10 -18 -6 -6 4 -8 -2 -5 -14 6 -21 -5 -24 -44 -14 -15 4 -23 14 -23
28 0 12 -5 27 -12 34 -15 15 -68 16 -68 1 0 -7 -7 -8 -17 -4 -10 4 -22 8 -28
9 -5 1 -16 6 -24 10 -10 6 -12 5 -7 -3 9 -15 -3 -53 -15 -46 -5 3 -6 0 -3 -8
3 -8 -3 -20 -12 -28 -11 -9 -15 -9 -10 -2 4 7 3 20 -2 30 -7 11 -6 23 2 35 9
16 6 23 -17 44 -16 13 -33 21 -38 18 -6 -3 -19 3 -30 15 -11 12 -29 21 -40 21
-10 0 -27 5 -37 11 -22 14 -72 -4 -72 -26 0 -26 -34 -10 -35 17 0 3 -4 10 -9
15 -5 5 -6 3 -2 -4 9 -17 -4 -16 -27 1 -15 12 -16 17 -6 34 16 25 6 49 -27 64
-23 11 -28 10 -45 -11 -19 -23 -34 -22 -34 2 0 7 -7 12 -15 13 -43 3 -44 3
-26 23 10 11 16 24 15 29 -2 6 -42 49 -88 97 -66 69 -88 86 -106 83 -19 -4
-28 3 -46 35 -12 22 -17 37 -12 34 12 -7 23 14 23 42 0 10 -9 26 -20 36 -16
15 -22 16 -35 5 -13 -11 -18 -10 -30 6 -8 10 -17 27 -20 37 -4 9 -13 17 -20
17 -25 0 -135 -71 -135 -86 0 -9 9 -29 20 -44 l20 -28 -30 -22 c-21 -15 -29
-28 -28 -46 1 -13 6 -24 11 -24 5 0 7 -6 4 -14 -6 -16 26 -11 58 10 23 15 34
10 58 -28 22 -34 32 -35 79 -3 57 39 53 30 -15 -32 -34 -32 -63 -65 -65 -75
-2 -12 21 -43 65 -86 37 -37 77 -80 88 -95 l20 -28 50 46 c55 51 85 71 85 56
0 -5 14 -18 31 -29 l32 -20 -23 -12 c-14 -8 -40 -10 -70 -6 l-46 6 -3 -44 -2
-45 44 -6 c24 -4 55 -5 68 -3 22 3 24 0 22 -31 -1 -20 2 -29 6 -22 6 10 10 9
15 -4 3 -9 3 -22 -1 -27 -3 -7 -1 -8 5 -4 7 4 12 1 12 -7 0 -8 10 -17 23 -21
16 -4 29 2 50 25 28 30 28 30 8 47 -13 10 -23 35 -27 62 -3 25 -2 40 3 34 4
-6 23 -19 41 -28 37 -19 38 -22 16 -65 -17 -35 -9 -55 27 -66 14 -5 19 -16 19
-39 0 -43 16 -56 65 -56 33 0 44 5 51 21 9 20 10 20 49 -7 22 -14 37 -23 33
-19 -5 5 1 14 12 22 11 8 20 21 20 29 0 19 19 18 26 -1 4 -8 10 -13 14 -10 5
3 12 0 16 -6 5 -8 0 -10 -18 -6 -31 8 -51 -12 -52 -53 -1 -15 0 -27 2 -26 1 2
35 -3 75 -11 39 -7 93 -16 120 -20 26 -3 47 -9 47 -14 0 -13 34 -11 48 3 7 7
12 23 13 38 1 21 2 20 11 -10 5 -19 9 -40 10 -47 1 -7 5 -10 9 -7 4 2 9 1 12
-3 2 -5 3 -3 1 3 -1 7 15 15 37 18 41 7 63 1 54 -14 -3 -5 18 0 46 11 50 18
75 17 64 -1 -3 -5 9 -5 27 1 18 5 34 9 36 9 2 0 1 4 -3 9 -3 5 -1 12 4 16 13
7 3 36 -17 52 -10 9 -13 22 -8 49 8 42 15 40 21 -7 3 -19 11 -39 20 -45 8 -6
11 -14 7 -19 -4 -4 7 0 24 8 29 15 32 15 47 -4 9 -10 13 -19 9 -19 -4 0 0 -4
8 -9 23 -13 57 -7 81 15 11 10 23 18 25 17 18 -12 23 1 8 18 -16 17 -16 22 -4
29 13 9 43 14 61 12 15 -2 16 38 2 65 l-14 28 26 -28 c21 -22 24 -31 15 -42
-9 -11 -6 -17 14 -30 26 -17 79 -28 71 -14 -9 14 6 38 23 36 26 -1 113 33 149
60 35 26 37 51 6 86 -18 19 -17 19 7 12 14 -3 32 -14 40 -24 9 -11 23 -15 37
-11 30 7 93 65 93 84 0 10 16 20 46 27 31 8 48 19 54 33 4 12 4 23 -1 24 -5 2
-9 10 -9 17 0 7 -7 15 -15 19 -8 3 -15 12 -15 20 0 9 -11 18 -24 22 -14 3 -33
15 -43 27 -10 11 -12 17 -6 13 7 -4 21 -3 30 3 27 15 75 -23 67 -54 -4 -17 0
-26 14 -34 43 -23 63 -14 85 39 12 29 28 50 36 51 22 0 81 76 81 103 -1 37
-26 59 -58 53 -27 -6 -62 15 -62 35 0 8 27 4 36 -5 4 -4 22 -7 41 -7 19 0 36
-6 39 -14 3 -8 15 -11 31 -8 27 5 53 51 53 95 0 14 16 38 40 61 22 21 40 41
40 45 0 16 -42 61 -56 61 -8 0 -17 6 -20 14 -3 8 -20 20 -37 26 -18 7 -48 21
-68 31 -47 25 -64 24 -83 -3z m58 -13 c15 -11 16 -17 7 -29 -9 -11 -8 -15 5
-20 9 -4 14 -13 10 -21 -10 -26 3 -16 19 15 9 17 20 28 25 25 6 -4 6 -14 -1
-28 -12 -21 -12 -21 14 -4 28 18 47 6 27 -18 -15 -19 21 -40 38 -23 8 8 15 9
22 2 6 -6 -4 -24 -29 -49 -21 -22 -36 -45 -34 -52 8 -20 -17 -83 -33 -83 -10
0 -13 7 -9 23 5 18 2 22 -20 23 -19 2 -25 -3 -25 -18 0 -27 -23 -17 -30 13 -5
22 -7 22 -13 5 -5 -14 -11 -16 -18 -9 -8 8 -6 21 6 44 11 23 11 28 2 17 -16
-20 -28 -14 -19 10 5 15 4 15 -9 2 -8 -8 -18 -23 -22 -33 -5 -14 -11 -16 -27
-7 -24 13 -24 12 -1 59 11 21 17 47 15 59 -4 14 0 22 14 27 12 3 29 24 39 45
20 44 21 45 47 25z m-2354 -130 c24 -39 24 -39 50 -25 15 8 21 6 30 -9 8 -16
6 -21 -10 -26 -26 -8 -25 -15 4 -58 l25 -36 -48 -30 c-26 -17 -51 -31 -54 -31
-4 0 -16 18 -27 40 -22 43 -26 43 -75 7 -17 -13 -21 -13 -31 1 -10 14 -6 20
22 40 40 27 41 31 14 65 -11 14 -20 29 -20 34 0 8 77 61 92 62 3 1 16 -15 28
-34z m2200 -140 c-7 -8 -10 -18 -7 -22 4 -3 16 6 28 21 15 19 25 24 32 17 7
-7 5 -17 -9 -33 -10 -13 -15 -20 -10 -15 6 4 24 -7 42 -24 27 -26 31 -35 21
-50 -6 -10 -8 -22 -4 -26 13 -12 42 13 40 35 -4 30 25 36 33 7 4 -16 -1 -34
-16 -55 -23 -33 -50 -39 -70 -15 -7 8 -17 12 -22 9 -6 -4 -6 -10 1 -17 26 -26
-4 -122 -34 -110 -14 5 -14 8 0 29 25 39 16 71 -12 43 -8 -8 -20 -2 -44 19
l-34 30 20 24 c11 13 4 6 -16 -15 -41 -44 -74 -44 -39 0 11 14 18 28 15 31 -3
3 -11 -2 -18 -11 -7 -10 -17 -13 -24 -9 -9 6 -4 18 18 45 17 20 26 37 20 37
-6 0 -11 7 -11 15 0 9 9 15 24 15 16 0 32 11 47 31 15 21 25 27 32 20 7 -7 6
-15 -3 -26z m-1891 -195 c-1 -3 -39 -40 -84 -83 l-83 -79 -79 83 -80 83 86 83
86 83 77 -82 c43 -46 77 -85 77 -88z m1720 4 c-8 -10 -9 -15 -2 -11 7 4 24 -8
43 -30 30 -38 31 -38 10 -55 -11 -9 -20 -19 -20 -23 0 -4 14 5 32 20 24 20 33
23 39 13 6 -8 2 -18 -11 -27 -22 -15 -27 -36 -7 -28 46 17 57 18 57 3 0 -21
-37 -39 -66 -33 -19 3 -24 0 -24 -17 0 -32 -24 -61 -44 -53 -16 6 -16 9 -2 29
23 33 19 43 -9 24 -30 -20 -35 -20 -35 -2 0 7 12 21 26 31 14 9 23 19 20 22
-3 4 -14 -1 -24 -10 -10 -10 -22 -14 -25 -10 -4 3 -7 -1 -7 -11 0 -11 -4 -15
-12 -10 -7 5 -5 -3 5 -16 9 -14 24 -35 33 -47 9 -12 12 -28 8 -34 -5 -9 -18 0
-41 27 -25 30 -33 35 -33 20 0 -15 -3 -16 -15 -6 -8 7 -15 22 -15 34 0 32 -14
48 -35 40 -15 -6 -17 -4 -12 16 3 13 1 30 -5 37 -5 7 -7 20 -4 29 6 15 9 15
30 -5 12 -11 25 -18 29 -15 3 3 11 3 17 -1 8 -5 8 -11 -1 -21 -6 -8 -10 -14
-8 -15 2 0 14 -2 26 -3 18 -2 20 0 12 15 -5 10 -14 21 -20 24 -7 5 -6 12 3 23
12 15 11 16 -5 3 -14 -11 -21 -11 -30 -2 -9 9 -9 14 3 21 8 5 15 15 15 22 0 7
10 14 22 16 14 2 20 8 16 18 -5 13 6 18 34 15 6 -1 15 3 18 10 5 7 10 8 18 0
7 -7 6 -15 -4 -27z m-1661 -105 c21 -13 25 -12 42 11 15 19 22 22 31 13 9 -9
8 -17 -4 -37 -16 -24 -16 -25 27 -52 26 -16 42 -33 39 -41 -7 -19 -20 -16 -58
13 -19 14 -39 23 -45 19 -16 -10 -12 -98 6 -124 14 -20 15 -25 2 -38 -13 -12
-17 -11 -30 9 -9 13 -19 41 -22 64 l-7 40 -70 -4 c-63 -4 -69 -3 -69 15 0 17
7 19 55 19 46 -1 59 3 80 25 l26 26 -40 28 c-23 15 -41 31 -41 35 0 16 15 19
34 7 12 -8 31 -20 44 -28z m1442 -45 c0 -10 6 -14 14 -11 8 3 17 -1 20 -9 3
-8 2 -14 -3 -14 -4 0 -6 -10 -4 -23 3 -17 -2 -27 -19 -35 -17 -9 -17 -11 -3
-7 33 11 37 10 42 -1 2 -6 -8 -16 -23 -23 -15 -6 -24 -14 -21 -17 3 -3 17 2
31 11 24 16 46 14 46 -4 0 -5 -13 -14 -30 -21 -16 -7 -30 -16 -30 -20 0 -18
16 -18 45 0 32 20 45 18 45 -5 0 -15 -107 -64 -155 -72 -21 -3 -37 -13 -40
-24 -4 -11 -12 -16 -21 -12 -9 3 -12 12 -8 25 4 15 -2 27 -22 44 -25 19 -27
25 -15 36 11 10 14 10 18 1 3 -7 9 -13 14 -13 6 0 5 9 -2 21 -8 15 -14 18 -22
10 -20 -20 -27 -12 -27 28 0 34 -3 38 -20 34 -13 -3 -20 0 -20 9 0 7 27 26 60
42 33 16 57 32 54 37 -5 9 -4 10 34 14 12 1 25 5 29 9 12 12 33 6 33 -10z
m-1196 -51 c5 -17 3 -29 -6 -34 -7 -4 -10 -10 -8 -12 9 -6 93 -37 87 -31 -3 3
6 16 21 29 20 17 30 20 40 13 10 -9 8 -16 -10 -35 l-22 -24 22 -6 c26 -6 25
-3 9 -41 -13 -32 -32 -31 -38 2 -6 27 -140 80 -155 61 -16 -22 -36 -2 -29 28
6 22 11 26 31 21 21 -6 24 -3 24 25 0 39 25 42 34 4z m1273 -14 c-1 -19 -2
-19 -14 -3 -7 9 -10 21 -7 26 9 14 23 -1 21 -23z m-1207 -9 c0 -22 -5 -30 -18
-30 -14 0 -19 8 -19 30 0 22 5 30 19 30 13 0 18 -8 18 -30z m864 -45 c-6 -34
-5 -36 18 -30 22 6 26 3 31 -22 7 -36 -10 -55 -27 -30 -13 17 -17 17 -86 0
-51 -12 -74 -23 -78 -35 -5 -21 -31 -32 -37 -15 -13 38 -9 52 13 55 l24 4 -21
21 c-14 15 -17 27 -11 37 7 12 12 11 30 -5 11 -10 18 -25 15 -33 -4 -11 1 -13
21 -8 15 4 40 10 56 13 16 3 25 9 20 12 -5 3 -7 21 -5 39 4 23 10 32 25 32 16
0 18 -5 12 -35z m-71 -9 c15 -22 15 -25 0 -31 -18 -6 -56 32 -47 47 10 15 32
8 47 -16z m-596 -27 c-4 -14 0 -19 13 -19 12 0 20 8 22 22 2 13 11 24 22 26
16 3 18 -1 14 -27 -4 -29 -3 -31 39 -37 29 -4 43 -11 43 -21 0 -13 -9 -15 -45
-10 -36 5 -47 3 -52 -9 -7 -19 13 -34 45 -34 15 0 22 -5 19 -12 -2 -8 -19 -13
-41 -12 -33 1 -36 -1 -36 -26 0 -26 4 -29 50 -35 48 -7 61 -17 40 -30 -8 -5
-238 30 -246 37 -1 2 1 10 5 17 7 10 19 11 57 3 51 -11 64 -5 64 31 0 13 -8
17 -34 17 -28 0 -33 3 -29 18 3 14 12 17 39 14 29 -4 34 -1 34 16 0 34 -45 34
-70 0 -18 -24 -24 -27 -36 -17 -13 10 -12 15 4 33 11 12 27 35 37 53 19 33 50
35 42 2z m-247 0 c64 -24 77 -39 48 -55 -20 -11 -20 -12 15 -25 20 -7 37 -16
37 -20 0 -17 -21 -19 -56 -4 -37 15 -38 15 -58 -10 -24 -29 -66 -25 -66 5 0
13 6 17 20 13 14 -4 20 0 20 10 0 10 -19 23 -50 34 -52 18 -73 51 -25 39 14
-3 36 -9 50 -12 15 -4 25 -2 25 5 0 6 -7 11 -15 11 -8 0 -15 7 -15 15 0 19 4
19 70 -6z m530 -6 c1 -16 2 -16 13 -2 17 23 40 13 27 -12 -7 -13 -7 -19 0 -19
5 0 10 -7 10 -15 0 -8 -8 -15 -17 -15 -14 0 -14 -3 -5 -12 16 -16 32 4 32 39
0 32 10 53 26 53 8 0 14 -10 14 -25 0 -21 5 -25 30 -25 20 0 30 -5 30 -15 0
-8 -4 -15 -9 -15 -5 0 -11 -26 -14 -57 -4 -48 -2 -60 14 -73 13 -10 16 -20 10
-29 -8 -13 -13 -12 -33 1 -20 14 -25 14 -46 0 -19 -12 -25 -13 -32 -3 -5 10
-9 10 -15 2 -3 -7 -16 -9 -27 -5 -11 3 -33 0 -50 -7 -25 -10 -31 -10 -39 2 -6
10 -2 16 14 23 12 5 17 10 10 13 -7 2 -9 11 -6 19 4 10 0 12 -11 8 -10 -4 -16
-1 -16 9 0 9 10 19 23 23 22 7 37 21 37 38 0 5 -9 1 -20 -9 -16 -15 -23 -16
-33 -6 -9 10 -8 15 7 27 18 12 15 19 -6 15 -5 0 -8 8 -8 19 0 11 5 20 11 20 8
0 8 4 0 14 -9 10 -9 16 -1 21 14 9 42 -14 33 -28 -3 -5 -1 -7 5 -4 5 4 8 16 5
27 -4 15 0 20 16 20 13 0 21 -6 21 -17z m390 -56 c0 -7 -6 -19 -12 -26 -11
-12 -9 -13 7 -7 48 18 75 19 75 3 0 -9 -17 -19 -46 -26 -40 -10 -45 -15 -40
-34 9 -36 -45 -79 -57 -44 -2 6 3 17 12 24 11 8 13 15 6 22 -7 7 -25 6 -59 -4
-27 -8 -52 -12 -57 -9 -19 11 -8 24 31 34 21 6 42 16 46 22 5 8 -1 9 -20 4
-23 -6 -27 -4 -24 11 5 28 138 57 138 30z m-506 -53 c4 -9 1 -23 -5 -30 -8
-10 -8 -14 0 -14 6 0 11 -8 10 -17 0 -10 -3 -13 -5 -6 -3 7 -12 9 -20 6 -12
-4 -14 0 -8 23 4 16 7 34 7 41 0 18 14 16 21 -3z"/>
<path d="M2816 1145 c-9 -26 -7 -32 5 -12 6 10 9 21 6 23 -2 3 -7 -2 -11 -11z"/>
<path d="M2835 1120 c-3 -5 -1 -10 4 -10 6 0 11 5 11 10 0 6 -2 10 -4 10 -3 0
-8 -4 -11 -10z"/>
<path d="M2786 1085 c-9 -26 -7 -32 5 -12 6 10 9 21 6 23 -2 3 -7 -2 -11 -11z"/>
<path d="M2835 1059 c-4 -6 -5 -12 -2 -15 2 -3 7 2 10 11 7 17 1 20 -8 4z"/>
<path d="M2870 1049 c-7 -11 -10 -23 -7 -25 2 -2 9 7 15 21 14 30 7 33 -8 4z"/>
<path d="M2899 1039 c-8 -16 -8 -20 0 -14 7 4 19 1 28 -7 10 -8 14 -8 10 -1
-4 6 -2 15 4 19 8 4 7 9 -2 15 -21 13 -27 11 -40 -12z"/>
<path d="M2877 997 c-3 -9 4 -19 19 -26 29 -13 31 -1 5 23 -15 14 -19 14 -24
3z"/>
<path d="M437 1035 c-16 -12 -17 -16 -5 -38 11 -23 16 -24 35 -14 22 12 22 13
5 39 -15 23 -19 25 -35 13z"/>
<path d="M483 949 c-8 -8 -8 -18 -1 -35 13 -27 18 -29 41 -11 16 11 16 14 2
35 -18 25 -26 27 -42 11z"/>
<path d="M2642 858 c-6 -6 -12 -19 -12 -27 0 -13 2 -13 16 1 9 9 15 21 13 27
-3 9 -8 8 -17 -1z"/>
<path d="M2689 843 l-24 -28 28 24 c25 23 32 31 24 31 -2 0 -14 -12 -28 -27z"/>
<path d="M2700 805 c-31 -32 -33 -37 -18 -51 14 -14 18 -12 47 25 29 36 34 61
12 61 -4 0 -22 -16 -41 -35z"/>
<path d="M581 783 l-61 -58 51 -57 c28 -32 55 -58 61 -58 5 0 -13 27 -42 60
-28 33 -48 64 -45 70 5 8 14 5 29 -9 14 -14 26 -17 36 -11 12 7 11 12 -5 30
-13 14 -15 24 -8 31 8 8 15 4 26 -11 9 -13 20 -19 27 -15 8 5 5 14 -10 30 -15
16 -18 25 -10 30 17 11 118 -91 104 -105 -7 -7 -16 -4 -29 10 -10 11 -22 20
-27 20 -13 0 -9 -20 8 -37 12 -13 13 -18 3 -24 -7 -4 -16 -6 -20 -3 -4 2 -9
-5 -12 -16 -7 -28 -1 -26 54 21 l50 41 -53 57 c-29 31 -56 57 -59 59 -3 1 -34
-23 -68 -55z"/>
<path d="M632 697 c-6 -7 -7 -19 -3 -26 6 -9 10 -6 14 10 8 28 3 34 -11 16z"/>
<path d="M2489 653 l-24 -26 27 19 c15 10 28 22 28 27 0 12 -5 8 -31 -20z"/>
<path d="M2511 629 c-13 -11 -22 -21 -20 -23 2 -3 17 7 32 20 15 13 24 24 20
24 -4 -1 -19 -10 -32 -21z"/>
<path d="M2197 519 c-9 -5 -22 -7 -27 -4 -6 4 -10 -8 -10 -29 0 -29 4 -34 20
-33 11 1 20 4 20 8 0 4 9 11 21 14 11 4 18 9 16 12 -3 2 -15 -1 -27 -7 -17 -9
-25 -9 -34 0 -8 9 -8 14 0 17 14 5 51 32 44 32 -3 0 -13 -4 -23 -10z"/>
<path d="M2222 448 c-17 -8 -21 -17 -16 -32 9 -28 8 -28 39 -16 15 6 25 13 22
16 -3 3 -14 1 -25 -5 -16 -8 -21 -7 -26 4 -3 8 -2 15 2 15 5 0 17 7 28 15 22
17 9 19 -24 3z"/>
<path d="M2264 379 c-3 -6 -15 -9 -25 -6 -21 6 -26 -11 -6 -19 19 -7 69 14 62
26 -8 13 -22 13 -31 -1z"/>
<path d="M1737 344 c-8 -8 2 -55 14 -68 5 -6 9 8 9 32 0 39 -8 51 -23 36z"/>
<path d="M1646 304 c-9 -23 -8 -24 18 -24 32 0 39 -12 21 -36 -21 -28 -18 -36
13 -32 22 2 27 7 25 30 -3 44 -65 93 -77 62z"/>
<path d="M1630 240 c0 -5 5 -10 10 -10 6 0 10 5 10 10 0 6 -4 10 -10 10 -5 0
-10 -4 -10 -10z"/>
<path d="M965 1185 c-35 -34 -34 -93 0 -125 21 -20 39 -25 95 -28 59 -4 70 -2
70 12 0 13 -11 16 -49 16 -66 0 -99 14 -107 44 -7 29 11 66 32 66 8 0 13 3 11
8 -3 4 21 5 54 4 49 -3 59 -1 59 12 0 13 -13 16 -70 16 -62 0 -74 -3 -95 -25z"/>
<path d="M1940 1200 c-77 -6 -88 -12 -106 -57 -13 -30 -13 -38 2 -68 19 -40
54 -55 130 -55 48 0 54 2 54 21 0 19 -5 20 -69 17 -38 -2 -68 -1 -66 1 2 2 -2
10 -10 18 -20 20 -19 57 3 76 13 12 37 17 80 17 47 0 62 3 62 14 0 21 -7 22
-80 16z"/>
<path d="M1451 134 c0 -11 3 -14 6 -6 3 7 2 16 -1 19 -3 4 -6 -2 -5 -13z"/>
<path d="M1596 128 c3 -5 10 -6 15 -3 13 9 11 12 -6 12 -8 0 -12 -4 -9 -9z"/>
<path d="M1348 113 c6 -2 18 -2 25 0 6 3 1 5 -13 5 -14 0 -19 -2 -12 -5z"/>
<path d="M1268 103 c7 -3 16 -2 19 1 4 3 -2 6 -13 5 -11 0 -14 -3 -6 -6z"/>
<path d="M1928 93 c7 -3 16 -2 19 1 4 3 -2 6 -13 5 -11 0 -14 -3 -6 -6z"/>
<path d="M1448 73 c7 -3 16 -2 19 1 4 3 -2 6 -13 5 -11 0 -14 -3 -6 -6z"/>
</g>
</svg>
