<?xml version="1.0" standalone="no"?>
<!DOCTYPE svg PUBLIC "-//W3C//DTD SVG 20010904//EN"
 "http://www.w3.org/TR/2001/REC-SVG-20010904/DTD/svg10.dtd">
<svg version="1.0" xmlns="http://www.w3.org/2000/svg"
 width="316.000000pt" height="316.000000pt" viewBox="0 0 316.000000 316.000000"
 preserveAspectRatio="xMidYMid meet">

<g transform="translate(0.000000,316.000000) scale(0.100000,-0.100000)"
fill="#000000" stroke="none">
<path d="M1405 3149 c-267 -36 -486 -117 -702 -261 -148 -98 -333 -284 -432
-431 -124 -188 -198 -368 -243 -589 -32 -160 -32 -423 0 -586 67 -334 211
-600 454 -840 234 -230 537 -383 858 -432 106 -17 482 -8 575 14 292 67 550
205 759 406 252 244 402 514 465 844 29 151 30 450 1 599 -25 131 -70 266
-126 384 -147 308 -436 598 -741 744 -113 54 -295 113 -413 134 -114 20 -358
28 -455 14z m437 -68 c150 -26 277 -68 423 -141 418 -208 713 -589 817 -1051
20 -91 23 -131 23 -314 0 -183 -3 -223 -23 -314 -134 -599 -584 -1049 -1183
-1183 -91 -20 -131 -23 -314 -23 -183 0 -223 3 -314 23 -602 135 -1048 581
-1183 1183 -20 91 -23 131 -23 314 0 183 3 223 23 314 122 544 507 969 1032
1141 215 70 493 90 722 51z"/>
<path d="M1455 3024 c-588 -63 -1077 -456 -1254 -1007 -50 -157 -65 -261 -65
-447 0 -183 15 -279 66 -439 213 -665 877 -1088 1564 -997 665 88 1172 595
1260 1260 58 439 -96 886 -416 1206 -209 210 -485 355 -765 405 -91 16 -316
27 -390 19z m371 -70 c195 -33 406 -123 569 -239 643 -461 782 -1348 309
-1980 -444 -594 -1285 -737 -1899 -322 -315 212 -529 539 -600 917 -25 129
-25 361 0 490 90 478 413 875 857 1054 237 95 513 124 764 80z"/>
<path d="M1390 2866 c0 -31 11 -43 36 -38 30 5 31 16 2 36 -28 20 -38 20 -38
2z"/>
<path d="M1755 2860 c-4 -6 -8 -23 -11 -38 -3 -15 -14 -39 -24 -54 -12 -16
-20 -44 -20 -65 0 -57 -9 -65 -70 -62 -31 2 -55 -1 -57 -7 -4 -13 40 -34 73
-34 20 0 24 -4 19 -19 -6 -20 18 -46 35 -36 6 3 17 22 25 41 l15 35 32 -24
c18 -13 39 -22 46 -20 6 3 12 0 12 -6 0 -6 -18 -14 -41 -17 -46 -8 -34 -23 14
-18 39 5 109 71 101 96 -4 13 4 18 41 23 29 5 45 12 45 21 0 18 -30 31 -39 16
-11 -18 -61 -19 -61 -1 0 7 -8 18 -17 24 -17 13 -17 14 0 33 22 24 12 56 -14
49 -21 -6 -25 13 -8 30 7 7 9 19 5 29 -10 26 -26 4 -98 -136 -21 -43 -23 -44
-26 -18 -2 15 8 48 22 75 14 26 26 55 26 65 0 20 -16 32 -25 18z m69 -116 c-1
-5 -5 -19 -8 -30 -4 -15 -2 -24 9 -28 8 -3 15 -1 15 4 0 16 27 12 33 -5 4 -8
3 -16 -1 -19 -6 -3 -101 -1 -109 3 -4 2 20 67 30 79 11 13 33 10 31 -4z m-4
-108 c0 -8 -5 -18 -11 -22 -14 -8 -33 11 -25 25 10 16 36 13 36 -3z m60 6 c0
-14 -39 -46 -47 -39 -3 4 2 16 12 27 19 21 35 26 35 12z"/>
<path d="M1445 2804 c-11 -11 -25 -14 -45 -10 -26 5 -31 2 -36 -22 -4 -15 -9
-31 -11 -35 -9 -15 -43 25 -43 50 0 20 -3 23 -27 17 -49 -12 -60 -30 -22 -36
12 -2 28 -13 36 -25 14 -21 14 -23 -13 -33 -37 -14 -44 -26 -44 -77 0 -33 6
-48 27 -68 39 -36 57 -33 49 8 -20 112 -20 117 3 117 11 0 21 5 21 11 0 6 9 8
21 4 13 -5 25 -2 30 6 4 7 11 10 15 6 4 -4 3 -12 -3 -18 -6 -6 -9 -17 -6 -24
2 -8 -3 -25 -13 -40 -13 -20 -14 -29 -5 -38 10 -9 17 -7 32 12 17 21 22 22 30
10 5 -7 9 -24 9 -36 0 -27 3 -27 52 -10 49 17 53 22 35 47 -12 18 -16 19 -27
5 -26 -32 -40 -18 -40 41 0 49 -2 55 -15 44 -25 -21 -17 0 16 41 31 39 33 69
5 69 -8 0 -22 -7 -31 -16z m15 -34 c0 -12 -28 -25 -36 -17 -9 9 6 27 22 27 8
0 14 -5 14 -10z"/>
<path d="M1003 2766 c-45 -22 -52 -36 -28 -56 18 -15 35 -5 35 21 0 10 5 19
10 19 17 0 11 -48 -9 -67 -40 -39 -52 -68 -43 -108 11 -56 32 -57 32 -2 0 85
49 136 83 86 10 -14 17 -17 22 -9 8 13 -22 50 -42 50 -18 0 -16 10 4 32 16 18
16 20 -3 37 -18 17 -21 17 -61 -3z"/>
<path d="M2046 2719 c-15 -17 -25 -33 -23 -35 9 -10 46 11 55 31 17 37 -3 39
-32 4z"/>
<path d="M2134 2735 c-4 -8 -4 -25 -1 -37 4 -14 0 -26 -11 -35 -16 -12 -16
-14 0 -23 15 -9 13 -14 -18 -45 -19 -19 -39 -35 -45 -35 -5 0 -14 -12 -20 -27
-8 -21 -7 -28 6 -35 20 -12 19 -27 -4 -52 -15 -16 -17 -26 -10 -45 l10 -24 29
34 c16 19 37 48 46 65 10 18 34 39 55 48 45 20 53 38 38 81 -19 51 -8 65 50
65 54 0 66 9 56 41 -6 18 -12 20 -56 14 -35 -5 -57 -2 -80 9 -39 20 -38 19
-45 1z m-24 -189 c0 -8 -4 -17 -9 -21 -12 -7 -24 12 -16 25 9 15 25 12 25 -4z"/>
<path d="M905 2693 c13 -55 55 -69 55 -19 0 27 -18 46 -43 46 -16 0 -18 -5
-12 -27z"/>
<path d="M2042 2648 c-21 -22 -22 -22 -22 -3 0 17 -4 16 -24 -10 -22 -27 -26
-65 -9 -85 5 -5 52 52 53 64 0 5 7 18 17 28 24 26 11 31 -15 6z"/>
<path d="M1060 2615 c-7 -8 -19 -15 -26 -15 -8 0 -14 -9 -14 -20 0 -21 15 -27
25 -10 9 15 25 2 25 -21 0 -10 3 -18 8 -18 21 4 23 -3 7 -21 -10 -11 -24 -20
-30 -20 -7 0 -18 -7 -25 -15 -10 -12 -9 -16 4 -21 11 -4 28 3 47 22 31 29 42
15 12 -18 -9 -10 -11 -18 -5 -18 28 0 43 15 48 51 4 25 15 44 30 54 13 8 24
22 24 30 0 19 -14 19 -30 0 -7 -8 -23 -15 -36 -15 -19 0 -26 7 -31 30 -7 37
-17 44 -33 25z"/>
<path d="M755 2598 c-17 -58 -13 -72 35 -118 26 -25 50 -56 54 -68 9 -28 41
-30 33 -2 -11 41 16 31 68 -26 30 -32 58 -55 61 -51 9 8 -64 117 -83 124 -7 3
-13 17 -13 32 0 30 -16 51 -40 51 -9 0 -31 16 -50 35 -35 36 -58 44 -65 23z
m95 -138 c-1 -11 -4 -10 -15 5 -8 11 -19 25 -25 32 -5 7 -10 18 -10 25 1 7 12
0 25 -17 14 -16 25 -37 25 -45z"/>
<path d="M2287 2523 c-4 -3 -2 -12 5 -20 15 -19 6 -25 -59 -38 -59 -12 -81
-31 -41 -37 15 -2 23 -10 23 -23 1 -21 2 -21 48 -10 18 5 27 3 27 -5 0 -6 -9
-14 -20 -17 -25 -7 -21 -27 6 -31 12 -2 28 9 43 28 21 29 21 33 7 49 -21 23
-3 41 41 41 53 0 38 35 -23 56 -45 16 -48 16 -57 7z"/>
<path d="M648 2504 c-4 -3 2 -18 12 -33 11 -14 22 -43 24 -64 6 -50 25 -107
37 -107 5 0 9 6 9 13 1 24 34 57 49 48 12 -8 12 -12 2 -25 -11 -13 -11 -22 -1
-46 15 -36 23 -38 38 -6 8 17 17 23 30 19 33 -8 35 15 4 45 -16 15 -33 37 -36
49 -4 13 -13 20 -21 17 -8 -4 -15 3 -17 18 -5 39 -33 28 -36 -14 -5 -56 -29
-49 -37 10 -3 26 -10 54 -14 62 -9 16 -33 24 -43 14z"/>
<path d="M1472 2430 c-212 -30 -389 -117 -533 -262 -156 -158 -239 -379 -239
-640 0 -189 6 -195 184 -178 170 16 377 53 541 95 327 85 269 79 695 80 l385
1 -3 80 c-9 241 -131 482 -320 634 -95 75 -254 156 -347 175 -88 19 -281 27
-363 15z m-137 -546 c74 -35 88 -146 26 -208 -30 -29 -36 -31 -107 -31 -72 0
-77 1 -104 32 -39 44 -47 92 -24 140 37 75 130 105 209 67z m318 10 c34 -6 37
-9 37 -40 0 -40 -12 -43 -34 -10 -20 32 -48 40 -90 26 -80 -26 -85 -158 -9
-198 39 -21 79 -15 106 18 30 35 38 29 25 -17 -8 -31 -11 -33 -56 -34 -106 -3
-146 15 -176 74 -22 45 -16 92 16 132 37 48 94 63 181 49z m271 -108 c23 -60
50 -114 59 -121 28 -21 20 -25 -48 -25 -62 0 -86 12 -45 23 17 4 18 8 7 36
-10 28 -15 31 -54 31 -37 0 -45 -4 -53 -26 -14 -36 -13 -44 10 -44 11 0 20 -4
20 -10 0 -5 -25 -10 -55 -10 -53 0 -74 13 -37 22 13 4 30 37 55 109 21 57 37
110 37 117 0 9 10 12 31 10 30 -3 33 -8 73 -112z m234 108 c12 -4 25 -17 28
-31 9 -36 -3 -40 -30 -10 -28 31 -57 35 -77 11 -12 -14 -11 -19 6 -30 102 -72
110 -80 113 -116 5 -58 -23 -79 -102 -77 l-64 2 -6 35 c-6 41 1 55 15 30 27
-49 80 -63 103 -26 13 21 -12 52 -65 79 -58 29 -70 100 -22 128 20 12 66 14
101 5z m-1085 -16 c-22 -10 -23 -17 -23 -110 0 -78 3 -100 15 -104 33 -13 12
-24 -45 -24 -57 0 -78 11 -45 24 12 4 15 26 15 105 0 85 -3 102 -17 110 -14 8
0 10 52 10 58 0 66 -2 48 -11z"/>
<path d="M1201 1861 c-27 -27 -35 -79 -21 -129 19 -73 93 -99 137 -48 41 48
25 158 -26 186 -30 16 -69 12 -90 -9z"/>
<path d="M1826 1816 c-3 -13 -9 -31 -12 -40 -5 -13 1 -16 25 -16 36 0 36 0 17
45 -18 41 -22 43 -30 11z"/>
<path d="M2410 2410 c0 -6 -11 -15 -25 -20 -14 -5 -25 -14 -25 -19 0 -5 -14
-24 -30 -41 -22 -23 -28 -36 -20 -44 7 -7 21 1 48 26 20 19 45 38 55 41 9 4
17 13 17 22 0 8 5 15 10 15 6 0 10 7 10 15 0 8 -9 15 -20 15 -11 0 -20 -5 -20
-10z"/>
<path d="M2460 2360 c-6 -11 -19 -20 -29 -20 -11 0 -21 -9 -25 -24 -3 -13 -21
-34 -40 -47 -35 -24 -52 -57 -37 -72 5 -5 29 10 55 32 37 32 53 40 72 35 21
-5 25 -2 30 25 4 17 13 31 21 31 19 0 28 27 13 45 -18 21 -47 19 -60 -5z"/>
<path d="M541 2335 c-36 -20 -54 -62 -54 -125 0 -30 -5 -58 -11 -62 -16 -10
102 -127 139 -137 17 -4 32 -6 34 -5 2 2 -4 21 -13 43 -14 30 -16 43 -7 57 9
17 10 16 11 -7 0 -26 16 -39 46 -39 14 0 74 54 102 91 7 9 10 24 6 32 -8 22
-209 170 -225 166 -2 -1 -15 -7 -28 -14z m61 -26 c37 -20 143 -100 151 -115
10 -17 -16 -68 -45 -88 -31 -22 -45 -20 -25 2 21 23 22 46 2 62 -8 7 -15 25
-15 41 0 34 -25 40 -35 9 -5 -16 -12 -19 -33 -14 -15 4 -36 11 -47 17 -13 7
-20 6 -23 -2 -6 -17 -22 -3 -22 20 0 11 7 33 15 49 17 32 41 38 77 19z m-2
-119 c13 -8 13 -10 -2 -10 -9 0 -20 5 -23 10 -8 13 5 13 25 0z m-47 -40 c3
-12 11 -18 19 -15 9 4 14 -2 15 -15 2 -24 0 -24 -37 -5 -29 15 -38 34 -23 48
11 12 21 7 26 -13z m27 -75 c13 -14 21 -25 18 -25 -2 0 -15 11 -28 25 -13 14
-21 25 -18 25 2 0 15 -11 28 -25z"/>
<path d="M557 2264 c-11 -11 13 -34 35 -34 13 0 18 6 16 18 -3 17 -38 29 -51
16z"/>
<path d="M2514 2286 c-11 -29 3 -46 33 -40 37 7 103 -46 103 -82 0 -36 -16
-29 -34 16 -13 33 -21 40 -43 40 -16 0 -39 3 -52 7 -17 4 -22 3 -17 -5 4 -7 3
-12 -3 -12 -5 0 -13 5 -16 10 -10 17 -55 11 -61 -7 -3 -10 -11 -28 -17 -41
-13 -28 2 -42 46 -42 15 0 27 -4 27 -10 0 -5 -6 -10 -14 -10 -34 0 -27 -60 12
-102 15 -16 20 -28 13 -28 -24 0 -4 -25 24 -30 34 -6 45 -35 34 -95 -4 -22 -6
-42 -4 -43 8 -9 50 12 71 35 20 21 29 24 59 19 20 -4 33 -11 30 -17 -4 -5 -9
-7 -13 -5 -4 2 -16 -2 -26 -10 -15 -11 -17 -16 -7 -28 11 -13 7 -19 -21 -36
-18 -11 -40 -20 -48 -20 -14 -1 -70 -43 -70 -54 0 -8 72 5 117 21 23 8 44 22
47 30 4 9 13 13 22 9 21 -8 44 11 44 35 0 14 7 19 25 19 19 0 25 5 25 23 0 19
-8 24 -52 35 -65 15 -73 23 -61 59 9 24 14 28 44 25 26 -2 44 -14 75 -48 22
-24 43 -41 47 -37 15 14 6 41 -24 69 -17 16 -39 44 -51 62 -20 32 -42 45 -32
17 5 -12 -5 -15 -57 -16 -35 -1 -83 -3 -107 -4 -40 -3 -42 -2 -29 13 8 10 17
30 21 45 7 28 6 28 -18 12 -28 -19 -66 -12 -66 11 0 9 11 14 30 14 23 0 33 6
40 25 11 29 22 31 40 10 7 -8 18 -15 26 -15 7 0 18 -9 24 -20 15 -27 22 -25
44 13 22 38 31 128 13 139 -18 12 -27 9 -27 -7 0 -25 -17 -17 -39 20 -15 27
-27 35 -48 35 -15 0 -38 3 -50 6 -16 4 -25 1 -29 -10z m112 -364 c-8 -9 -19
-13 -22 -9 -10 9 16 38 28 31 6 -4 4 -13 -6 -22z"/>
<path d="M420 2060 c-17 -24 -25 -28 -39 -20 -13 6 -24 5 -39 -6 -27 -19 -28
-41 -3 -49 33 -10 71 -53 71 -80 0 -14 -7 -37 -16 -50 -21 -32 -7 -50 38 -49
36 1 49 24 27 50 -9 11 -9 18 -1 26 9 9 12 8 12 -4 0 -12 9 -16 33 -16 17 1
58 -11 90 -26 63 -30 88 -27 47 5 -77 62 -121 112 -120 138 3 40 1 44 -14 32
-15 -13 -16 -11 -30 52 -8 35 -29 34 -56 -3z m30 -60 c0 -5 -2 -10 -4 -10 -3
0 -8 5 -11 10 -3 6 -1 10 4 10 6 0 11 -4 11 -10z"/>
<path d="M434 1648 c-32 -22 -56 -49 -74 -83 -23 -45 -25 -60 -25 -173 l0
-124 35 -29 c129 -109 427 -155 645 -101 135 34 236 69 381 132 231 102 409
151 625 171 166 16 256 5 540 -66 120 -30 226 -55 234 -55 11 0 15 7 13 22 -2
19 -18 28 -87 51 -206 70 -446 102 -705 94 l-171 -5 -345 -85 c-407 -101 -475
-114 -612 -123 -123 -7 -212 6 -285 41 -65 32 -95 72 -101 137 l-5 49 39 -20
c78 -42 127 -21 141 62 7 46 -9 72 -65 108 -64 40 -114 39 -178 -3z"/>
<path d="M1888 1385 c-72 -12 -213 -53 -206 -60 2 -2 26 1 53 7 28 6 151 12
275 12 181 1 243 -3 314 -17 97 -20 109 -16 104 33 -3 22 -9 26 -58 32 -95 11
-401 7 -482 -7z"/>
<path d="M2075 1294 c-16 -2 -86 -11 -155 -19 -221 -27 -372 -56 -497 -96
-365 -116 -589 -144 -818 -104 -89 16 -183 51 -217 82 -16 14 -17 13 -11 -23
17 -108 63 -182 136 -219 64 -31 98 -31 279 0 178 30 357 79 524 143 71 27
152 57 179 65 175 56 490 115 650 124 187 9 398 -27 531 -92 61 -30 71 -32 84
-19 13 14 12 17 -8 34 -36 30 -169 77 -282 100 -99 20 -327 34 -395 24z"/>
<path d="M2080 1203 c-147 -11 -422 -63 -434 -82 -3 -4 46 1 107 11 173 27
426 34 511 14 52 -12 72 -14 82 -5 23 19 16 49 -12 59 -24 9 -150 11 -254 3z"/>
<path d="M1995 1114 c-16 -2 -64 -9 -105 -15 -41 -5 -205 -46 -365 -89 -482
-132 -590 -154 -862 -176 -46 -4 -83 -10 -83 -14 0 -5 24 -34 52 -66 65 -70
131 -104 207 -104 61 0 198 51 626 235 384 164 481 190 715 189 202 0 302 -42
375 -154 39 -61 40 -61 49 -34 10 32 -5 90 -35 128 -51 64 -175 96 -394 101
-82 2 -163 1 -180 -1z"/>
<path d="M2065 1014 c-212 -22 -368 -73 -690 -226 -210 -99 -345 -154 -452
-181 -46 -12 -83 -24 -83 -27 1 -14 125 -96 205 -135 176 -86 348 -121 564
-112 332 13 595 124 861 365 44 41 80 76 80 80 0 4 -25 7 -56 7 -50 0 -59 3
-77 27 -19 25 -19 32 -8 75 22 86 22 85 -44 105 -60 19 -219 30 -300 22z
m-738 -376 c-3 -13 -11 -58 -18 -100 -9 -55 -17 -78 -27 -78 -11 0 -13 8 -8
33 20 112 20 116 -3 110 -31 -8 -25 9 12 34 42 28 50 28 44 1z m565 11 c27
-14 48 -69 48 -123 0 -37 -4 -48 -25 -62 -35 -23 -64 -9 -87 42 -27 62 -22
124 12 141 30 15 27 15 52 2z m-362 -35 c20 -20 18 -116 -4 -149 -22 -33 -61
-42 -86 -20 -18 16 -27 45 -15 45 3 0 14 -9 25 -20 23 -23 43 -18 59 16 15 34
14 36 -8 24 -28 -14 -38 -13 -61 10 -27 27 -25 66 5 96 27 27 55 26 85 -2z
m200 1 c0 -11 -11 -15 -40 -15 -33 0 -40 -3 -40 -20 0 -16 7 -20 34 -20 40 0
59 -20 59 -60 0 -41 -29 -70 -69 -70 -30 0 -54 20 -54 44 0 13 28 5 34 -9 9
-23 45 -18 57 9 8 17 8 29 0 45 -12 22 -45 28 -56 11 -3 -5 -13 -10 -22 -10
-13 0 -14 8 -8 48 4 26 9 50 12 55 2 4 24 7 49 7 32 0 44 -4 44 -15z"/>
<path d="M1835 610 c-7 -21 11 -98 27 -117 16 -20 46 -15 53 7 8 25 -2 78 -21
108 -18 27 -50 29 -59 2z"/>
<path d="M1454 585 c-9 -36 2 -55 30 -55 27 0 41 27 31 60 -10 30 -53 27 -61
-5z"/>
</g>
</svg>
