<?xml version="1.0" standalone="no"?>
<!DOCTYPE svg PUBLIC "-//W3C//DTD SVG 20010904//EN"
 "http://www.w3.org/TR/2001/REC-SVG-20010904/DTD/svg10.dtd">
<svg version="1.0" xmlns="http://www.w3.org/2000/svg"
 width="590.000000pt" height="490.000000pt" viewBox="0 0 590.000000 490.000000"
 preserveAspectRatio="xMidYMid meet">

<g transform="translate(0.000000,490.000000) scale(0.100000,-0.100000)"
fill="#000000" stroke="none">
<path d="M3641 4523 c-26 -25 -175 -410 -539 -1390 -3 -10 19 -13 90 -13 l95
0 247 658 c135 361 246 671 246 687 -1 34 -15 56 -47 73 -34 19 -60 14 -92
-15z"/>
<path d="M2045 4028 c-32 -17 -45 -39 -45 -75 0 -34 18 -65 368 -633 l120
-195 102 -3 c90 -2 102 -1 96 13 -3 9 -126 211 -272 449 -182 296 -274 438
-291 445 -30 14 -52 14 -78 -1z"/>
<path d="M1298 3042 c-69 -25 -134 -75 -169 -129 -62 -98 -60 -66 -57 -1004
l3 -854 26 -56 c34 -72 96 -134 168 -168 l56 -26 981 -3 981 -2 41 100 40 100
-969 0 c-853 0 -974 2 -1007 15 -49 21 -81 52 -103 100 -18 38 -19 83 -19 815
l0 776 23 44 c12 24 39 58 60 74 l39 31 1291 3 c711 1 1307 0 1325 -3 41 -7
97 -56 123 -106 18 -37 19 -66 19 -819 0 -848 3 -807 -54 -868 -48 -53 -65
-57 -309 -62 l-228 -5 -118 -270 c-64 -149 -120 -279 -124 -289 -5 -13 7 -8
40 17 27 19 145 105 263 190 l215 156 310 3 310 3 56 26 c72 34 134 96 168
168 l26 56 0 875 0 875 -33 67 c-36 73 -86 123 -161 160 l-46 23 -1560 2
c-1452 2 -1563 1 -1607 -15z m3197 -696 c32 -32 40 -69 25 -107 -17 -40 -46
-59 -91 -59 -74 0 -119 73 -85 138 20 39 41 51 89 52 27 0 45 -7 62 -24z m2
-331 c31 -31 35 -40 30 -72 -19 -117 -175 -117 -194 0 -5 32 -1 41 30 72 48
48 86 48 134 0z m-7 -314 c72 -51 30 -171 -60 -171 -82 0 -130 110 -72 163 42
39 85 41 132 8z"/>
<path d="M1650 2350 l0 -90 180 0 c137 0 180 -3 180 -12 0 -7 0 -223 0 -480
l0 -468 100 0 100 0 0 480 0 480 185 0 185 0 0 90 0 90 -465 0 -465 0 0 -90z"/>
<path d="M2709 2418 c5 -13 66 -160 136 -328 69 -168 172 -417 228 -553 l102
-248 88 3 89 3 130 315 c71 173 177 428 234 567 57 138 104 254 104 257 0 3
-47 6 -104 6 -74 0 -105 -4 -109 -12 -3 -7 -78 -200 -167 -428 -89 -228 -165
-421 -169 -428 -5 -8 -45 82 -100 225 -52 131 -129 329 -173 441 l-79 202
-109 0 -110 0 9 -22z"/>
</g>
</svg>
