<?xml version="1.0" encoding="UTF-8"?>
<svg xmlns="http://www.w3.org/2000/svg" xmlns:xlink="http://www.w3.org/1999/xlink" width="198pt" height="319pt" viewBox="0 0 198 319" version="1.1">
<g id="surface1">
<path style=" stroke:none;fill-rule:evenodd;fill:rgb(74.901961%,83.529412%,23.137255%);fill-opacity:1;" d="M 99.101562 316.492188 C 154.21875 290.4375 192.980469 230.234375 192.980469 160.402344 C 192.980469 90.578125 154.21875 30.363281 99.101562 4.3125 Z M 99.101562 316.492188 "/>
<path style=" stroke:none;fill-rule:evenodd;fill:rgb(29.411765%,59.215686%,29.019608%);fill-opacity:1;" d="M 99.101562 316.492188 C 43.984375 290.4375 5.21875 230.234375 5.21875 160.402344 C 5.21875 90.578125 43.984375 30.363281 99.101562 4.3125 Z M 99.101562 316.492188 "/>
<path style=" stroke:none;fill-rule:evenodd;fill:rgb(74.901961%,83.529412%,23.137255%);fill-opacity:1;" d="M 37.03125 263.296875 C 29.082031 251.886719 22.410156 239.351562 17.261719 225.957031 L 50.902344 225.957031 C 48.101562 239.644531 43.332031 252.28125 37.03125 263.296875 Z M 37.03125 263.296875 "/>
<path style=" stroke:none;fill-rule:evenodd;fill:rgb(74.901961%,83.529412%,23.137255%);fill-opacity:1;" d="M 14.433594 217.992188 C 8.488281 199.992188 5.234375 180.59375 5.234375 160.386719 C 5.234375 140.609375 8.351562 121.617188 14.054688 103.945312 C 15.0625 104.757812 16.042969 105.601562 17.015625 106.472656 L 20.257812 109.5 C 23.429688 112.609375 26.425781 116.03125 29.226562 119.707031 C 44.375 139.582031 53.761719 167.066406 53.761719 197.394531 C 53.761719 204.429688 53.261719 211.328125 52.300781 217.992188 Z M 14.433594 217.992188 "/>
<path style=" stroke:none;fill-rule:evenodd;fill:rgb(74.901961%,83.529412%,23.137255%);fill-opacity:1;" d="M 54.351562 36.527344 C 65.265625 25.300781 77.636719 15.792969 91.140625 8.378906 L 91.140625 70.910156 L 54.351562 36.515625 Z M 54.351562 36.527344 "/>
<path style=" stroke:none;fill-rule:evenodd;fill:rgb(74.901961%,83.529412%,23.137255%);fill-opacity:1;" d="M 91.125 312.410156 C 72.316406 302.09375 55.667969 287.679688 42.152344 270.269531 C 50.003906 257.414062 55.839844 242.355469 59.023438 225.945312 L 91.125 225.945312 Z M 60.335938 217.992188 C 61.246094 211.304688 61.726562 204.417969 61.726562 197.394531 C 61.726562 174.75 56.75 153.5625 48.160156 135.597656 L 91.125 175.765625 L 91.125 217.992188 Z M 26.265625 104.253906 C 24.792969 102.78125 23.269531 101.363281 21.722656 100 L 16.992188 95.578125 C 20.308594 86.828125 24.277344 78.460938 28.808594 70.519531 L 91.125 128.785156 L 91.125 164.898438 Z M 33 63.558594 C 37.792969 56.023438 43.136719 48.941406 48.949219 42.347656 L 91.125 81.78125 L 91.125 117.890625 L 33.011719 63.546875 Z M 33 63.558594 "/>
<path style=" stroke:none;fill-rule:evenodd;fill:rgb(29.411765%,59.215686%,29.019608%);fill-opacity:1;" d="M 143.859375 36.527344 C 132.949219 25.300781 120.578125 15.792969 107.074219 8.378906 L 107.074219 70.910156 L 143.859375 36.515625 Z M 165.199219 63.570312 C 160.410156 56.035156 155.066406 48.953125 149.253906 42.359375 L 107.074219 81.792969 L 107.074219 117.902344 L 165.1875 63.558594 Z M 171.933594 104.265625 C 173.410156 102.796875 174.933594 101.375 176.480469 100.011719 L 181.210938 95.589844 C 177.894531 86.839844 173.925781 78.472656 169.390625 70.53125 L 107.074219 128.796875 L 107.074219 164.910156 Z M 107.074219 312.421875 C 125.882812 302.09375 142.519531 287.695312 156.046875 270.28125 C 148.195312 257.425781 142.347656 242.367188 139.179688 225.957031 L 107.085938 225.957031 L 107.085938 312.421875 Z M 137.851562 218.007812 C 136.941406 211.316406 136.476562 204.429688 136.476562 197.40625 C 136.476562 174.761719 141.453125 153.574219 150.039062 135.609375 L 107.074219 175.777344 L 107.074219 218.007812 Z M 161.183594 263.296875 C 169.132812 251.886719 175.792969 239.351562 180.941406 225.957031 L 147.300781 225.957031 C 150.101562 239.644531 154.878906 252.28125 161.183594 263.296875 Z M 183.777344 218.007812 C 189.722656 200.003906 192.980469 180.605469 192.980469 160.402344 C 192.980469 140.621094 189.859375 121.628906 184.160156 103.960938 C 183.152344 104.769531 182.167969 105.613281 181.199219 106.484375 L 177.953125 109.511719 C 174.785156 112.621094 171.785156 116.042969 168.984375 119.71875 C 153.835938 139.59375 144.449219 167.078125 144.449219 197.40625 C 144.449219 204.441406 144.941406 211.339844 145.910156 218.007812 Z M 183.777344 218.007812 "/>
</g>
</svg>
